<svg xmlns="http://www.w3.org/2000/svg" width="32" height="32" viewBox="0 0 24 24" fill="none">
  <defs>
    <linearGradient id="g" x1="0%" y1="0%" x2="100%" y2="100%">
      <stop offset="0%" stop-color="#6366f1"/>
      <stop offset="100%" stop-color="#8b5cf6"/>
    </linearGradient>
  </defs>
  <path d="M21 16V8a2 2 0 0 0-1-1.73l-7-4a2 2 0 0 0-2 0l-7 4A2 2 0 0 0 3 8v8a2 2 0 0 0 1 1.73l7 4a2 2 0 0 0 2 0l7-4A2 2 0 0 0 21 16z" stroke="url(#g)" stroke-width="2" stroke-linecap="round" stroke-linejoin="round"/>
  <polyline points="3.27 6.96 12 12.01 20.73 6.96" stroke="url(#g)" stroke-width="2" stroke-linecap="round" stroke-linejoin="round"/>
  <line x1="12" y1="22.08" x2="12" y2="12" stroke="url(#g)" stroke-width="2" stroke-linecap="round" stroke-linejoin="round"/>
</svg>
